# xmcd
#
# Track frame offsets: 
#        150
#        18093
#        25363
#        32090
#        39404
#        67923
#        83017
#        118975
#        132389
#        138365
#        158407
#        164178
#        172631
#        181492
#        200270
#        206615
#        238688
#        245074
#        251310
#        259751
#        272121
#
# Disc length: 3843 seconds
#
# Revision: 2
# Processed by: cddbd v1.5.2PL0 Copyright (c) Steve Scherf et al.
# Submitted via: ExactAudioCopy v1.3
#
DISCID=1e0f0115
DTITLE=Morton Feldman - All Piano cd1 - Early Piano 1950-64 - John Til
DTITLE=bury
DYEAR=1999
DGENRE=Avantgarde
TTITLE0=Piano Piece (To Philip Guston) (1963)
TTITLE1=Three pieces for Piano 1 (1954)
TTITLE2=Three pieces for Piano 2 (1954)
TTITLE3=Three pieces for Piano 3 (1954)
TTITLE4=Extentions 3 (1952)
TTITLE5=Intermission 6 for one or two Pianos (1953)
TTITLE6=Intersection 2 (1953)
TTITLE7=Last Pieces 1 (1959)
TTITLE8=Last Pieces 2 (1959)
TTITLE9=Last Pieces 3 (1959)
TTITLE10=Last Pieces 4 (1959)
TTITLE11=Piano Piece 1956 A (For Cynthia)
TTITLE12=Piano Piece 1956 B
TTITLE13=Intermission 5 (1952)
TTITLE14=Piano Piece 1955
TTITLE15=Piano Piece 1964
TTITLE16=Two Intermissions 1 (1950)
TTITLE17=Two Intermissions 2 (1950)
TTITLE18=Vertical Thoughts 4 (1963)
TTITLE19=Intersection 3 (1953)
TTITLE20=Piano Piece 1952
EXTD=
EXTT0=
EXTT1=
EXTT2=
EXTT3=
EXTT4=
EXTT5=
EXTT6=
EXTT7=
EXTT8=
EXTT9=
EXTT10=
EXTT11=
EXTT12=
EXTT13=
EXTT14=
EXTT15=
EXTT16=
EXTT17=
EXTT18=
EXTT19=
EXTT20=
PLAYORDER=
